<svg xmlns="http://www.w3.org/2000/svg" xmlns:xlink="http://www.w3.org/1999/xlink" version="1.1" x="0px" y="0px" viewBox="0 0 50 62.5" enable-background="new 0 0 50 50" xml:space="preserve"><g><path fill-rule="evenodd" clip-rule="evenodd" d="M43.681,13.777c-0.497,0-0.9-0.403-0.9-0.899c0-0.496,0.403-0.899,0.9-0.899   c0.496,0,0.899,0.404,0.899,0.899C44.579,13.374,44.177,13.777,43.681,13.777 M34.425,47.795l-1.663-0.001   c-0.487,0-0.882,0.396-0.882,0.883c0,0.487,0.395,0.883,0.882,0.883l6.321,0.002c0.487,0,0.883-0.396,0.883-0.883   c0-0.487-0.396-0.883-0.883-0.883l-2.886,0V44.38c-0.584,0.217-1.177,0.418-1.772,0.607V47.795z M18.419,36.841   c1.086,1.171,2.843,3.06,4.018,3.981c-0.065-1.47,0.004-2.854,0.237-4.133c0.382-2.1,1.191-3.917,2.54-5.367   c0.969-1.043,2.676-2.193,4.037-2.479c0.441-0.092,0.885-0.063,0.973,0.136c0.074,0.169-0.143,0.484-0.489,0.726   c-2.674,1.875-4.713,3.944-5.324,7.295c-0.465,2.56-0.202,5.643,0.517,9.053c0.034,0.164,0.213,0.246,0.361,0.168   c3.82-2.029,13.842-2.881,16.284-8.348c0.586-1.314,0.786-2.951,0.431-5.024c-0.082-0.481,0.243-0.939,0.724-1.021   c0.481-0.082,0.939,0.242,1.02,0.723c0.419,2.441,0.164,4.416-0.562,6.04c-0.497,1.113-0.835,1.923-1.698,2.719   c11.057-6.264,8.979-11.906,6.708-19.555l-0.719-2.473c-0.431-1.547-0.362-2.883-0.286-4.349l0.036-0.708   c1.497,0.561,0.812,2.182,0.812,4.341c0,0.338,0.276,0.614,0.615,0.614c0.337,0,0.614-0.276,0.614-0.614v-4.259   c0.033-1.857-1.794-3.59-3.593-4.389c-0.902-0.62-2.016-0.795-3.049-0.581c-1.988,0.412-3.304,2.166-3.216,4.187   c0,1.118,0.666,2.394,0.812,3.542c0.045,0.349,0.003,0.62-0.269,0.654c-0.856-1.237-1.834-2.213-2.931-3.234   c-5.817-5.42-9.924-5.158-15.799-0.936l-0.162,0.116c-0.265,0.172-0.615,0.062-0.71-0.247c-0.179-0.566-0.331-1.116-0.497-1.721   c-1.207-4.387-3.098-11.26-8.935-11.26c-2.843,0-4.879,2.605-4.523,5.347C2.894,5.96,0.973,9.975,2.721,12.942   c-2.93,1.402-3.546,5.393-1.266,7.673c-2.244,2.156-1.84,5.981,0.853,7.562c-1.563,2.766-0.017,6.486,3.197,7.028   c-0.439,2.714,1.7,5.494,4.503,5.494c1.291,0,3.22-1.262,5.149-2.526c0.807-0.528,1.615-1.059,2.314-1.461   C17.916,36.455,18.029,36.417,18.419,36.841z"/></g><text x="0" y="65" fill="#000000" font-size="5px" font-weight="bold" font-family="'Helvetica Neue', Helvetica, Arial-Unicode, Arial, Sans-serif">Created by Georgiana Ionescu</text><text x="0" y="70" fill="#000000" font-size="5px" font-weight="bold" font-family="'Helvetica Neue', Helvetica, Arial-Unicode, Arial, Sans-serif">from the Noun Project</text></svg>